<svg data-v-423bf9ae="" xmlns="http://www.w3.org/2000/svg" viewBox="0 0 457.48769238457203 60" class="font"><!----><defs data-v-423bf9ae=""><linearGradient data-v-423bf9ae="" gradientTransform="rotate(25)" id="90fc8e98-fdfe-4050-8801-1953e6d6ebb7" x1="0%" y1="0%" x2="100%" y2="0%"><stop data-v-423bf9ae="" offset="0%" style="stop-color: rgb(33, 105, 15); stop-opacity: 1;"></stop><stop data-v-423bf9ae="" offset="100%" style="stop-color: rgb(136, 200, 72); stop-opacity: 1;"></stop></linearGradient></defs><!----><g data-v-423bf9ae="" id="0eb10f89-a8f8-46c8-ba5b-8602ad1c39f8" fill="#ffffff" transform="matrix(5.758157347474804,0,0,5.758157347474804,-4.030710148425612,-18.944337453535837)"><path d="M2.52 6.29L2.52 7.11L2.52 7.11Q2.63 6.86 2.86 6.68L2.86 6.68L2.86 6.68Q3.08 6.50 3.36 6.38L3.36 6.38L3.36 6.38Q3.64 6.26 3.93 6.19L3.93 6.19L3.93 6.19Q4.23 6.12 4.48 6.10L4.48 6.10L4.48 6.10Q5.01 6.06 5.54 6.24L5.54 6.24L5.54 6.24Q6.06 6.41 6.48 6.85L6.48 6.85L6.48 6.85Q6.61 6.99 6.71 7.13L6.71 7.13L6.71 7.13Q6.82 7.28 6.89 7.46L6.89 7.46L6.89 7.46Q6.93 7.15 7.14 6.91L7.14 6.91L7.14 6.91Q7.35 6.66 7.65 6.49L7.65 6.49L7.65 6.49Q7.95 6.31 8.30 6.22L8.30 6.22L8.30 6.22Q8.65 6.12 8.99 6.10L8.99 6.10L8.99 6.10Q9.53 6.06 10.06 6.24L10.06 6.24L10.06 6.24Q10.58 6.41 11.03 6.85L11.03 6.85L11.03 6.85Q11.66 7.50 11.66 8.74L11.66 8.74L11.66 13.52L9.84 13.52L9.84 13.52Q9.84 13.29 9.84 12.88L9.84 12.88L9.84 12.88Q9.84 12.47 9.84 11.99L9.84 11.99L9.84 11.99Q9.83 11.51 9.83 10.99L9.83 10.99L9.83 10.99Q9.83 10.47 9.81 10.01L9.81 10.01L9.81 10.01Q9.80 9.55 9.78 9.18L9.78 9.18L9.78 9.18Q9.76 8.82 9.73 8.65L9.73 8.65L9.73 8.65Q9.58 7.74 8.71 7.70L8.71 7.70L8.71 7.70Q8.22 7.69 7.89 7.98L7.89 7.98L7.89 7.98Q7.56 8.27 7.57 8.69L7.57 8.69L7.57 8.69Q7.45 8.65 7.32 8.55L7.32 8.55L7.32 8.55Q7.20 8.44 7.10 8.30L7.10 8.30L7.10 8.30Q7.11 8.41 7.11 8.52L7.11 8.52L7.11 8.52Q7.11 8.62 7.11 8.74L7.11 8.74L7.11 13.52L5.32 13.52L5.32 13.52Q5.32 13.29 5.33 12.88L5.33 12.88L5.33 12.88Q5.33 12.47 5.33 11.99L5.33 11.99L5.33 11.99Q5.33 11.51 5.33 10.99L5.33 10.99L5.33 10.99Q5.33 10.47 5.32 10.01L5.32 10.01L5.32 10.01Q5.31 9.55 5.28 9.18L5.28 9.18L5.28 9.18Q5.25 8.82 5.21 8.65L5.21 8.65L5.21 8.65Q5.10 8.20 4.79 7.98L4.79 7.98L4.79 7.98Q4.48 7.76 4.12 7.76L4.12 7.76L4.12 7.76Q3.63 7.76 3.36 8.02L3.36 8.02L3.36 8.02Q3.09 8.27 3.09 8.69L3.09 8.69L3.09 8.69Q2.93 8.64 2.76 8.46L2.76 8.46L2.76 8.46Q2.59 8.29 2.52 8.09L2.52 8.09L2.52 13.52L0.70 13.52L0.70 6.29L2.52 6.29ZM21.01 7.07L21.01 7.07L21.01 7.07Q20.82 6.55 20.40 6.19L20.40 6.19L20.40 6.19Q19.98 5.82 19.44 5.62L19.44 5.62L19.44 5.62Q18.90 5.42 18.30 5.37L18.30 5.37L18.30 5.37Q17.70 5.32 17.16 5.43L17.16 5.43L17.16 5.43Q16.59 5.56 16.14 5.86L16.14 5.86L16.14 5.86Q15.68 6.16 15.37 6.59L15.37 6.59L15.37 6.59Q15.05 7.01 14.88 7.53L14.88 7.53L14.88 7.53Q14.71 8.05 14.71 8.61L14.71 8.61L14.71 8.61Q14.71 9.66 15.16 10.40L15.16 10.40L15.16 10.40Q15.61 11.13 16.30 11.52L16.30 11.52L16.30 11.52Q16.98 11.91 17.79 11.94L17.79 11.94L17.79 11.94Q18.61 11.97 19.33 11.63L19.33 11.63L19.33 11.63Q19.96 11.35 20.75 10.54L20.75 10.54L21.95 11.84L21.95 11.84Q21.48 12.33 21.03 12.68L21.03 12.68L21.03 12.68Q20.58 13.03 20.10 13.26L20.10 13.26L20.10 13.26Q19.61 13.48 19.07 13.59L19.07 13.59L19.07 13.59Q18.54 13.71 17.91 13.71L17.91 13.71L17.91 13.71Q16.77 13.71 15.90 13.34L15.90 13.34L15.90 13.34Q15.04 12.98 14.42 12.37L14.42 12.37L14.42 12.37Q13.80 11.76 13.45 10.97L13.45 10.97L13.45 10.97Q13.09 10.18 12.98 9.32L12.98 9.32L12.98 9.32Q12.87 8.47 13.02 7.62L13.02 7.62L13.02 7.62Q13.17 6.78 13.58 6.05L13.58 6.05L13.58 6.05Q13.97 5.36 14.47 4.89L14.47 4.89L14.47 4.89Q14.97 4.42 15.55 4.14L15.55 4.14L15.55 4.14Q16.13 3.85 16.78 3.72L16.78 3.72L16.78 3.72Q17.43 3.60 18.13 3.58L18.13 3.58L18.13 3.58Q18.62 3.58 19.16 3.68L19.16 3.68L19.16 3.68Q19.70 3.77 20.18 3.96L20.18 3.96L20.18 3.96Q20.66 4.14 21.04 4.44L21.04 4.44L21.04 4.44Q21.42 4.73 21.57 5.12L21.57 5.12L21.57 5.12Q21.73 5.52 21.62 6.00L21.62 6.00L21.62 6.00Q21.50 6.48 21.01 7.07ZM24.82 3.72L28.85 3.72L28.85 5.56L25.07 5.56L25.07 7.73L28.85 7.73L28.85 7.73Q28.84 8.05 28.76 8.37L28.76 8.37L28.76 8.37Q28.67 8.69 28.49 8.95L28.49 8.95L28.49 8.95Q28.31 9.20 28.02 9.36L28.02 9.36L28.02 9.36Q27.73 9.52 27.31 9.52L27.31 9.52L25.07 9.52L25.07 11.69L28.85 11.69L28.85 13.52L23.21 13.52L23.21 5.42L23.21 5.42Q23.21 4.61 23.67 4.17L23.67 4.17L23.67 4.17Q24.12 3.72 24.82 3.72L24.82 3.72ZM30.25 5.57L30.25 3.72L36.96 3.72L36.96 3.72Q36.96 4.16 36.83 4.50L36.83 4.50L36.83 4.50Q36.71 4.84 36.50 5.08L36.50 5.08L36.50 5.08Q36.29 5.32 36.02 5.45L36.02 5.45L36.02 5.45Q35.74 5.57 35.43 5.57L35.43 5.57L34.31 5.57L34.31 13.52L32.42 13.52L32.42 5.57L30.25 5.57ZM43.54 6.29L43.54 7.11L43.54 7.11Q43.65 6.86 43.88 6.68L43.88 6.68L43.88 6.68Q44.10 6.50 44.38 6.38L44.38 6.38L44.38 6.38Q44.66 6.26 44.95 6.19L44.95 6.19L44.95 6.19Q45.25 6.12 45.50 6.10L45.50 6.10L45.50 6.10Q46.03 6.06 46.56 6.24L46.56 6.24L46.56 6.24Q47.08 6.41 47.50 6.85L47.50 6.85L47.50 6.85Q47.63 6.99 47.73 7.13L47.73 7.13L47.73 7.13Q47.84 7.28 47.91 7.46L47.91 7.46L47.91 7.46Q47.95 7.15 48.16 6.91L48.16 6.91L48.16 6.91Q48.37 6.66 48.67 6.49L48.67 6.49L48.67 6.49Q48.97 6.31 49.32 6.22L49.32 6.22L49.32 6.22Q49.67 6.12 50.01 6.10L50.01 6.10L50.01 6.10Q50.55 6.06 51.08 6.24L51.08 6.24L51.08 6.24Q51.60 6.41 52.05 6.85L52.05 6.85L52.05 6.85Q52.68 7.50 52.68 8.74L52.68 8.74L52.68 13.52L50.86 13.52L50.86 13.52Q50.86 13.29 50.86 12.88L50.86 12.88L50.86 12.88Q50.86 12.47 50.86 11.99L50.86 11.99L50.86 11.99Q50.85 11.51 50.85 10.99L50.85 10.99L50.85 10.99Q50.85 10.47 50.83 10.01L50.83 10.01L50.83 10.01Q50.82 9.55 50.80 9.18L50.80 9.18L50.80 9.18Q50.78 8.82 50.75 8.65L50.75 8.65L50.75 8.65Q50.60 7.74 49.73 7.70L49.73 7.70L49.73 7.70Q49.24 7.69 48.91 7.98L48.91 7.98L48.91 7.98Q48.58 8.27 48.59 8.69L48.59 8.69L48.59 8.69Q48.47 8.65 48.34 8.55L48.34 8.55L48.34 8.55Q48.22 8.44 48.12 8.30L48.12 8.30L48.12 8.30Q48.13 8.41 48.13 8.52L48.13 8.52L48.13 8.52Q48.13 8.62 48.13 8.74L48.13 8.74L48.13 13.52L46.34 13.52L46.34 13.52Q46.34 13.29 46.35 12.88L46.35 12.88L46.35 12.88Q46.35 12.47 46.35 11.99L46.35 11.99L46.35 11.99Q46.35 11.51 46.35 10.99L46.35 10.99L46.35 10.99Q46.35 10.47 46.34 10.01L46.34 10.01L46.34 10.01Q46.33 9.55 46.30 9.18L46.30 9.18L46.30 9.18Q46.27 8.82 46.23 8.65L46.23 8.65L46.23 8.65Q46.12 8.20 45.81 7.98L45.81 7.98L45.81 7.98Q45.50 7.76 45.14 7.76L45.14 7.76L45.14 7.76Q44.65 7.76 44.38 8.02L44.38 8.02L44.38 8.02Q44.11 8.27 44.11 8.69L44.11 8.69L44.11 8.69Q43.95 8.64 43.78 8.46L43.78 8.46L43.78 8.46Q43.61 8.29 43.54 8.09L43.54 8.09L43.54 13.52L41.72 13.52L41.72 6.29L43.54 6.29ZM57.60 6.10L57.60 6.10L57.60 6.10Q58.70 6.10 59.56 6.64L59.56 6.64L59.56 6.64Q60.42 7.17 60.91 7.99L60.91 7.99L60.91 7.99Q61.40 8.82 61.44 9.83L61.44 9.83L61.44 9.83Q61.47 10.84 60.93 11.80L60.93 11.80L60.93 11.80Q60.47 12.60 59.72 13.08L59.72 13.08L59.72 13.08Q58.98 13.55 58.14 13.67L58.14 13.67L58.14 13.67Q57.30 13.79 56.46 13.53L56.46 13.53L56.46 13.53Q55.61 13.27 54.94 12.60L54.94 12.60L54.94 12.60Q54.18 11.83 53.93 10.82L53.93 10.82L53.93 10.82Q53.68 9.81 53.97 8.81L53.97 8.81L53.97 8.81Q54.10 8.40 54.38 8.13L54.38 8.13L54.38 8.13Q54.67 7.87 55.03 7.74L55.03 7.74L55.03 7.74Q55.40 7.62 55.79 7.63L55.79 7.63L55.79 7.63Q56.18 7.64 56.52 7.79L56.52 7.79L56.52 7.79Q56.85 7.94 57.09 8.21L57.09 8.21L57.09 8.21Q57.32 8.48 57.36 8.88L57.36 8.88L57.36 8.88Q57.15 8.72 56.85 8.71L56.85 8.71L56.85 8.71Q56.56 8.71 56.29 8.84L56.29 8.84L56.29 8.84Q56.01 8.97 55.83 9.25L55.83 9.25L55.83 9.25Q55.64 9.52 55.64 9.93L55.64 9.93L55.64 9.93Q55.64 10.63 55.93 11.09L55.93 11.09L55.93 11.09Q56.22 11.55 56.67 11.78L56.67 11.78L56.67 11.78Q57.11 12.01 57.62 12.01L57.62 12.01L57.62 12.01Q58.13 12.01 58.57 11.77L58.57 11.77L58.57 11.77Q59.01 11.54 59.30 11.07L59.30 11.07L59.30 11.07Q59.60 10.60 59.60 9.90L59.60 9.90L59.60 9.90Q59.60 9.35 59.40 8.93L59.40 8.93L59.40 8.93Q59.21 8.51 58.88 8.24L58.88 8.24L58.88 8.24Q58.55 7.97 58.11 7.86L58.11 7.86L58.11 7.86Q57.68 7.76 57.19 7.85L57.19 7.85L57.19 7.85Q56.98 7.60 56.68 7.46L56.68 7.46L56.68 7.46Q56.38 7.31 56.03 7.26L56.03 7.26L56.03 7.26Q55.68 7.21 55.33 7.27L55.33 7.27L55.33 7.27Q54.98 7.34 54.67 7.52L54.67 7.52L54.67 7.52Q55.23 6.85 55.97 6.48L55.97 6.48L55.97 6.48Q56.71 6.10 57.60 6.10ZM64.65 13.52L61.56 6.29L63.42 6.29L65.24 10.56L66.61 7.39L66.61 7.39Q66.75 7.08 66.96 6.83L66.96 6.83L66.96 6.83Q67.17 6.57 67.45 6.40L67.45 6.40L67.45 6.40Q67.73 6.23 68.10 6.18L68.10 6.18L68.10 6.18Q68.47 6.13 68.94 6.23L68.94 6.23L65.81 13.52L64.65 13.52ZM69.90 13.52L69.90 7.74L69.90 7.74Q69.93 7.32 70.08 7.04L70.08 7.04L70.08 7.04Q70.22 6.76 70.46 6.59L70.46 6.59L70.46 6.59Q70.70 6.43 71.02 6.35L71.02 6.35L71.02 6.35Q71.33 6.27 71.71 6.27L71.71 6.27L71.71 13.52L69.90 13.52ZM70.81 3.29L70.81 3.29L70.81 3.29Q71.29 3.29 71.62 3.64L71.62 3.64L71.62 3.64Q71.97 3.98 71.97 4.47L71.97 4.47L71.97 4.47Q71.97 4.96 71.64 5.31L71.64 5.31L71.64 5.31Q71.44 5.50 71.18 5.58L71.18 5.58L71.18 5.58Q70.92 5.66 70.67 5.73L70.67 5.73L70.67 5.73Q70.41 5.81 70.19 5.92L70.19 5.92L70.19 5.92Q69.97 6.02 69.89 6.26L69.89 6.26L69.89 6.26Q69.82 6.03 69.74 5.68L69.74 5.68L69.74 5.68Q69.66 5.33 69.64 4.96L69.64 4.96L69.64 4.96Q69.62 4.58 69.69 4.22L69.69 4.22L69.69 4.22Q69.75 3.86 69.99 3.63L69.99 3.63L69.99 3.63Q70.32 3.29 70.81 3.29ZM78.32 10.72L78.32 10.72L78.32 10.72Q77.56 10.92 76.94 10.86L76.94 10.86L76.94 10.86Q76.31 10.81 75.92 10.56L75.92 10.56L75.92 10.56Q75.52 10.32 75.38 9.91L75.38 9.91L75.38 9.91Q75.25 9.49 75.46 8.97L75.46 8.97L75.46 8.97Q75.89 9.34 76.47 9.37L76.47 9.37L76.47 9.37Q77.04 9.41 77.57 9.35L77.57 9.35L77.57 9.35Q78.02 9.31 78.25 9.16L78.25 9.16L78.25 9.16Q78.48 9.00 78.54 8.80L78.54 8.80L78.54 8.80Q78.60 8.60 78.50 8.37L78.50 8.37L78.50 8.37Q78.40 8.15 78.18 7.97L78.18 7.97L78.18 7.97Q77.97 7.78 77.65 7.67L77.65 7.67L77.65 7.67Q77.34 7.56 76.96 7.57L76.96 7.57L76.96 7.57Q76.55 7.60 76.19 7.77L76.19 7.77L76.19 7.77Q75.82 7.94 75.54 8.23L75.54 8.23L75.54 8.23Q75.26 8.53 75.10 8.92L75.10 8.92L75.10 8.92Q74.93 9.31 74.91 9.79L74.91 9.79L74.91 9.79Q74.90 10.18 75.01 10.56L75.01 10.56L75.01 10.56Q75.11 10.93 75.32 11.25L75.32 11.25L75.32 11.25Q75.53 11.56 75.82 11.78L75.82 11.78L75.82 11.78Q76.12 12.00 76.50 12.05L76.50 12.05L76.50 12.05Q77.03 12.15 77.59 11.98L77.59 11.98L77.59 11.98Q78.15 11.82 78.58 11.37L78.58 11.37L80.05 12.08L80.05 12.08Q79.48 12.94 78.69 13.31L78.69 13.31L78.69 13.31Q77.91 13.68 76.90 13.68L76.90 13.68L76.90 13.68Q75.96 13.68 75.26 13.35L75.26 13.35L75.26 13.35Q74.55 13.02 74.08 12.47L74.08 12.47L74.08 12.47Q73.61 11.93 73.38 11.24L73.38 11.24L73.38 11.24Q73.15 10.54 73.16 9.82L73.16 9.82L73.16 9.82Q73.18 9.10 73.44 8.41L73.44 8.41L73.44 8.41Q73.71 7.71 74.21 7.18L74.21 7.18L74.21 7.18Q74.77 6.58 75.52 6.33L75.52 6.33L75.52 6.33Q76.27 6.08 77.06 6.08L77.06 6.08L77.06 6.08Q77.92 6.08 78.55 6.37L78.55 6.37L78.55 6.37Q79.18 6.66 79.58 7.12L79.58 7.12L79.58 7.12Q79.97 7.57 80.09 8.13L80.09 8.13L80.09 8.13Q80.22 8.68 80.07 9.20L80.07 9.20L80.07 9.20Q79.93 9.72 79.49 10.13L79.49 10.13L79.49 10.13Q79.06 10.54 78.32 10.72Z"></path></g><!----><!----></svg>